<svg xmlns="http://www.w3.org/2000/svg" xmlns:xlink="http://www.w3.org/1999/xlink" width="500" zoomAndPan="magnify" viewBox="0 0 375 135.000003" height="180" preserveAspectRatio="xMidYMid meet" version="1.0"><defs><g/></defs><g fill="#222222" fill-opacity="1"><g transform="translate(0.900259, 121.118205)"><g><path d="M 1.875 0 L 12.203125 -107 L 48.453125 -107 L 58.671875 0 L 38.359375 0 L 36.875 -17.3125 L 23.921875 -17.3125 L 22.671875 0 Z M 25.53125 -34.375 L 35.25 -34.375 L 30.515625 -88.8125 L 29.515625 -88.8125 Z M 25.53125 -34.375 "/></g></g></g><g fill="#222222" fill-opacity="1"><g transform="translate(54.461466, 121.118205)"><g><path d="M 4.734375 0 L 4.734375 -107 L 26.15625 -107 L 26.15625 -18.1875 L 48.203125 -18.1875 L 48.203125 0 Z M 4.734375 0 "/></g></g></g><g fill="#222222" fill-opacity="1"><g transform="translate(97.061195, 121.118205)"><g><path d="M 4.734375 0 L 4.734375 -107 L 47.578125 -107 L 47.578125 -86.328125 L 26.53125 -86.328125 L 26.53125 -65.515625 L 46.71875 -65.515625 L 46.71875 -45.34375 L 26.53125 -45.34375 L 26.53125 -20.796875 L 48.953125 -20.796875 L 48.953125 0 Z M 4.734375 0 "/></g></g></g><g fill="#222222" fill-opacity="1"><g transform="translate(141.529359, 121.118205)"><g><path d="M 1.625 0 L 13.078125 -56.796875 L 3.984375 -107.125 L 24.90625 -107.125 L 30.515625 -70.25 L 35.375 -107.125 L 56.421875 -107.125 L 47.203125 -56.796875 L 58.671875 0 L 37 0 L 30.265625 -41.859375 L 23.421875 0 Z M 1.625 0 "/></g></g></g><g fill="#222222" fill-opacity="1"><g transform="translate(194.965999, 121.118205)"><g><path d="M 3.359375 0 L 3.359375 -18.1875 L 25.15625 -18.1875 L 25.15625 0 Z M 3.359375 0 "/></g></g></g><g fill="#222222" fill-opacity="1"><g transform="translate(216.639305, 121.118205)"><g><path d="M 4.734375 -107 L 34.25 -107 C 41.894531 -107 47.625 -104.878906 51.4375 -100.640625 C 55.257812 -96.410156 57.210938 -90.144531 57.296875 -81.84375 L 57.546875 -31.765625 C 57.628906 -21.210938 55.800781 -13.28125 52.0625 -7.96875 C 48.332031 -2.65625 42.144531 0 33.5 0 L 4.734375 0 Z M 30.015625 -18.9375 C 33.921875 -18.9375 35.875 -20.84375 35.875 -24.65625 L 35.875 -79.84375 C 35.875 -82.25 35.6875 -84.050781 35.3125 -85.25 C 34.9375 -86.457031 34.25 -87.269531 33.25 -87.6875 C 32.257812 -88.101562 30.726562 -88.3125 28.65625 -88.3125 L 26.28125 -88.3125 L 26.28125 -18.9375 Z M 30.015625 -18.9375 "/></g></g></g><g fill="#222222" fill-opacity="1"><g transform="translate(271.197011, 121.118205)"><g><path d="M 4.734375 0 L 4.734375 -107 L 47.578125 -107 L 47.578125 -86.328125 L 26.53125 -86.328125 L 26.53125 -65.515625 L 46.71875 -65.515625 L 46.71875 -45.34375 L 26.53125 -45.34375 L 26.53125 -20.796875 L 48.953125 -20.796875 L 48.953125 0 Z M 4.734375 0 "/></g></g></g><g fill="#222222" fill-opacity="1"><g transform="translate(315.66516, 121.118205)"><g><path d="M 14.578125 0 L 1.375 -107.125 L 21.796875 -107.125 L 29.640625 -34.25 L 36.625 -107.125 L 57.046875 -107.125 L 43.84375 0 Z M 14.578125 0 "/></g></g></g></svg>